<?xml version="1.0" encoding="utf-8"?>
<!-- Generator: Adobe Illustrator 27.8.0, SVG Export Plug-In . SVG Version: 6.00 Build 0)  -->
<svg version="1.1" id="Layer_1" xmlns="http://www.w3.org/2000/svg" xmlns:xlink="http://www.w3.org/1999/xlink" x="0px" y="0px"
	 viewBox="0 0 128 128" style="enable-background:new 0 0 128 128;" xml:space="preserve">
<style type="text/css">
	.st0{fill:#FFFFFF;}
	.st1{fill:#151521;}
</style>
<path class="st0" d="M22.4,12.9l64.1,0c11.6,1.8,20.5,11.2,21.7,22.9l-0.1,79H22.4V12.9z"/>
<g>
	<path class="st1" d="M80.6,0H6.7v127.9h114.6V40.7C121.3,18.2,103.1,0,80.6,0z M81.4,109.1L61,80H46.8v29.1H26.4V17.9h34.7
		c14.3,0,24.4,2.3,30.5,7.2c6.1,4.8,9.1,12.5,9.1,23.1c0,14.6-5.8,24.1-17.5,28.3l23.3,32.6L81.4,109.1L81.4,109.1z"/>
	<path class="st1" d="M76,38.1c-2.6-1.8-7.2-2.7-13.8-2.7H46.8v27h15c7,0,11.8-1.1,14.3-3.4c2.6-2.3,3.8-5.9,3.8-10.8
		S78.6,39.9,76,38.1z"/>
</g>
</svg>
