<?xml version="1.0" encoding="UTF-8"?>
<svg id="Layer_1" xmlns="http://www.w3.org/2000/svg" version="1.1" viewBox="0 0 322.32462 376.60869">
  <defs>
    <style>
      .st0 {
        fill: #ffffff;
      }
    </style>
  </defs>
  <path class="st0" d="M18.86885,61.16528c-7.15192,0-12.91967,5.76768-12.91967,12.91959v73.90335c0,7.15192,5.76776,12.91959,12.91967,12.91959h67.32811c36.87477,0,59.09958-18.41814,59.09958-49.33292,0-31.45313-22.22482-50.40961-59.09958-50.40961H18.86885Z"/>
  <path class="st0" d="M281.75084,3.38823h-124.58202c42.75613,17.45568,67.83716,55.70432,67.83716,108.18667,0,35.75966-17.0339,66.82826-43.25762,87.70733-6.42134,5.11401-6.69056,14.88059-.34604,20.07151,16.14951,13.18881,24.41653,31.29932,31.68377,56.48492l20.60993,72.63443,5.15243,19.53324c.4637,1.7775,1.34692,5.21414,1.34692,5.21414h41.55546c19.20466,0,34.77305-15.56839,34.77305-34.77305V38.16127c0-19.20458-15.56839-34.77305-34.77305-34.77305Z"/>
  <path class="st0" d="M45.59242,229.23572h-26.64667c-7.15199,0-12.91967,5.76776-12.91967,12.91967v128.69632c0,.8106-.08353,1.60008-.22534,2.36875h148.53859l-18.73246-82.19359c-9.22831-42.83467-36.3365-61.79115-90.01444-61.79115Z"/>
</svg>
